<svg xmlns="http://www.w3.org/2000/svg" xmlns:xlink="http://www.w3.org/1999/xlink" width="1920" zoomAndPan="magnify" viewBox="0 0 1440 809.999993" height="1080" preserveAspectRatio="xMidYMid meet" version="1.0"><defs><g/><clipPath id="467e1e9dd1"><rect x="0" width="437" y="0" height="133"/></clipPath></defs><g transform="matrix(1, 0, 0, 1, 498, 337)"><g clip-path="url(#467e1e9dd1)"><g fill="#ffffff" fill-opacity="1"><g transform="translate(21.167483, 105.460827)"><g><path d="M -3.296875 0.640625 C -2.148438 -2.222656 -1.023438 -5.546875 0.078125 -9.328125 C 1.191406 -13.117188 2.222656 -17.050781 3.171875 -21.125 C 4.117188 -25.207031 4.878906 -29.050781 5.453125 -32.65625 L 7.578125 -44.859375 C 8.203125 -48.472656 8.75 -52.269531 9.21875 -56.25 C 9.695312 -60.238281 10.023438 -64.050781 10.203125 -67.6875 C 10.378906 -71.320312 10.359375 -74.40625 10.140625 -76.9375 L 61.78125 -87.09375 C 62.601562 -84.675781 63.785156 -81.816406 65.328125 -78.515625 C 66.878906 -75.222656 68.601562 -71.816406 70.5 -68.296875 C 72.40625 -64.785156 74.34375 -61.476562 76.3125 -58.375 L 82.96875 -47.90625 C 84.945312 -44.789062 87.109375 -41.519531 89.453125 -38.09375 C 91.804688 -34.664062 94.210938 -31.410156 96.671875 -28.328125 C 99.128906 -25.242188 101.4375 -22.59375 103.59375 -20.375 L 63.1875 -12.421875 C 62.707031 -14.472656 62.007812 -16.742188 61.09375 -19.234375 C 60.175781 -21.734375 59.023438 -24.523438 57.640625 -27.609375 L 57.109375 -28.671875 L 36.59375 -24.640625 L 36.515625 -23.34375 C 36.398438 -19.96875 36.398438 -16.972656 36.515625 -14.359375 C 36.640625 -11.742188 36.835938 -9.390625 37.109375 -7.296875 Z M 38.703125 -35.65625 L 51.0625 -38.09375 L 47.03125 -44.46875 C 45.6875 -46.5625 44.660156 -48.585938 43.953125 -50.546875 C 43.253906 -52.515625 42.492188 -54.671875 41.671875 -57.015625 L 40.109375 -56.703125 C 40.296875 -54.023438 40.410156 -51.742188 40.453125 -49.859375 C 40.492188 -47.984375 40.316406 -45.71875 39.921875 -43.0625 Z M 38.703125 -35.65625 "/></g></g></g><g fill="#ffffff" fill-opacity="1"><g transform="translate(112.299631, 87.068403)"><g><path d="M 5.484375 20.65625 C 6.117188 18.007812 6.601562 14.929688 6.9375 11.421875 C 7.269531 7.921875 7.429688 4.273438 7.421875 0.484375 C 7.410156 -3.304688 7.273438 -6.910156 7.015625 -10.328125 L 6.09375 -22.375 C 5.832031 -25.800781 5.414062 -29.367188 4.84375 -33.078125 C 4.28125 -36.796875 3.566406 -40.375 2.703125 -43.8125 C 1.835938 -47.257812 0.886719 -50.210938 -0.140625 -52.671875 L 39.875 -55.734375 C 38.914062 -53.484375 38.1875 -51.25 37.6875 -49.03125 C 37.195312 -46.8125 37.03125 -44.691406 37.1875 -42.671875 L 37.21875 -42.25 L 38.78125 -42.375 C 40.539062 -47.0625 43.585938 -50.90625 47.921875 -53.90625 C 52.253906 -56.914062 57.804688 -58.679688 64.578125 -59.203125 C 71.003906 -59.691406 76.507812 -58.898438 81.09375 -56.828125 C 85.675781 -54.753906 89.257812 -51.726562 91.84375 -47.75 C 94.4375 -43.769531 95.941406 -39.09375 96.359375 -33.71875 C 96.765625 -28.414062 95.988281 -23.582031 94.03125 -19.21875 C 92.082031 -14.851562 89 -11.296875 84.78125 -8.546875 C 80.570312 -5.796875 75.253906 -4.175781 68.828125 -3.6875 C 62.054688 -3.164062 56.28125 -4.09375 51.5 -6.46875 C 46.71875 -8.851562 43.101562 -12.226562 40.65625 -16.59375 L 39.1875 -16.484375 L 39.46875 -12.8125 C 39.726562 -9.394531 40.160156 -5.8125 40.765625 -2.0625 C 41.367188 1.675781 42.082031 5.253906 42.90625 8.671875 C 43.738281 12.085938 44.671875 15.054688 45.703125 17.578125 Z M 53.40625 -20.640625 C 57.53125 -20.953125 60.726562 -22.109375 63 -24.109375 C 65.269531 -26.109375 66.296875 -28.539062 66.078125 -31.40625 C 65.859375 -34.257812 64.472656 -36.5 61.921875 -38.125 C 59.378906 -39.757812 56.046875 -40.421875 51.921875 -40.109375 C 47.867188 -39.796875 44.707031 -38.640625 42.4375 -36.640625 C 40.175781 -34.640625 39.15625 -32.210938 39.375 -29.359375 C 39.59375 -26.492188 40.972656 -24.242188 43.515625 -22.609375 C 46.054688 -20.984375 49.351562 -20.328125 53.40625 -20.640625 Z M 53.40625 -20.640625 "/></g></g></g><g fill="#ffffff" fill-opacity="1"><g transform="translate(202.97788, 80.847417)"><g><path d="M 3.890625 0.03125 C 5.109375 -3.875 6.085938 -8.257812 6.828125 -13.125 C 7.566406 -17.988281 7.957031 -22.976562 8 -28.09375 L 8.125 -45.421875 C 8.164062 -50.609375 7.851562 -55.617188 7.1875 -60.453125 C 6.519531 -65.285156 5.601562 -69.632812 4.4375 -73.5 L 44.765625 -73.203125 C 43.484375 -69.359375 42.492188 -65.023438 41.796875 -60.203125 C 41.097656 -55.378906 40.726562 -50.375 40.6875 -45.1875 L 40.5625 -27.859375 C 40.519531 -22.742188 40.8125 -17.75 41.4375 -12.875 C 42.0625 -8 42.988281 -3.597656 44.21875 0.328125 Z M 3.890625 0.03125 "/></g></g></g><g fill="#ffffff" fill-opacity="1"><g transform="translate(242.737229, 80.02626)"><g><path d="M 26.65625 3.859375 C 18.21875 3.140625 11.941406 0.972656 7.828125 -2.640625 C 3.710938 -6.265625 1.859375 -10.484375 2.265625 -15.296875 C 2.679688 -20.191406 5.222656 -24.050781 9.890625 -26.875 C 14.566406 -29.707031 21.125 -30.765625 29.5625 -30.046875 C 35.769531 -29.515625 40.820312 -28.203125 44.71875 -26.109375 C 48.613281 -24.023438 51.269531 -21.414062 52.6875 -18.28125 L 54.265625 -18.140625 L 54.6875 -23.0625 C 54.96875 -26.332031 53.535156 -28.925781 50.390625 -30.84375 C 47.253906 -32.769531 43.101562 -33.953125 37.9375 -34.390625 C 33.269531 -34.785156 28.710938 -34.679688 24.265625 -34.078125 C 19.816406 -33.484375 15.867188 -32.316406 12.421875 -30.578125 L 14.015625 -49.40625 C 16.734375 -49.875 19.945312 -50.234375 23.65625 -50.484375 C 27.363281 -50.734375 31.21875 -50.84375 35.21875 -50.8125 C 39.21875 -50.78125 42.960938 -50.613281 46.453125 -50.3125 C 52.171875 -49.820312 57.523438 -48.960938 62.515625 -47.734375 C 67.515625 -46.515625 71.859375 -44.867188 75.546875 -42.796875 C 79.242188 -40.722656 82.050781 -38.160156 83.96875 -35.109375 C 85.882812 -32.054688 86.664062 -28.441406 86.3125 -24.265625 L 85.9375 -19.96875 C 85.394531 -13.613281 85.265625 -8.351562 85.546875 -4.1875 C 85.828125 -0.0195312 86.476562 3.863281 87.5 7.46875 L 49.703125 4.25 C 50.628906 3.332031 51.390625 2.25 51.984375 1 C 52.585938 -0.246094 52.957031 -1.675781 53.09375 -3.28125 L 53.15625 -3.90625 L 51.6875 -4.03125 C 49.6875 -1.175781 46.566406 0.984375 42.328125 2.453125 C 38.085938 3.921875 32.863281 4.390625 26.65625 3.859375 Z M 42.546875 -8.171875 C 45.546875 -7.910156 47.921875 -8.128906 49.671875 -8.828125 C 51.421875 -9.523438 52.347656 -10.5 52.453125 -11.75 C 52.566406 -13.082031 51.816406 -14.21875 50.203125 -15.15625 C 48.597656 -16.101562 46.296875 -16.707031 43.296875 -16.96875 C 40.296875 -17.226562 37.925781 -17.023438 36.1875 -16.359375 C 34.445312 -15.703125 33.519531 -14.707031 33.40625 -13.375 C 33.300781 -12.125 34.046875 -11.007812 35.640625 -10.03125 C 37.242188 -9.050781 39.546875 -8.429688 42.546875 -8.171875 Z M 42.546875 -8.171875 "/></g></g></g><g fill="#ffffff" fill-opacity="1"><g transform="translate(322.653169, 86.038509)"><g><path d="M 3.8125 0.75 C 5.738281 -2.863281 7.398438 -6.390625 8.796875 -9.828125 C 10.203125 -13.265625 11.398438 -17.484375 12.390625 -22.484375 L 12.796875 -24.5625 C 13.804688 -29.632812 14.363281 -34.269531 14.46875 -38.46875 C 14.582031 -42.664062 14.429688 -46.769531 14.015625 -50.78125 L 52.96875 -43.0625 C 51.59375 -41.539062 50.398438 -39.664062 49.390625 -37.4375 C 48.378906 -35.21875 47.675781 -33.113281 47.28125 -31.125 L 47.203125 -30.703125 L 48.53125 -30.4375 C 51.53125 -34.769531 55.316406 -37.765625 59.890625 -39.421875 C 64.472656 -41.085938 69.582031 -41.363281 75.21875 -40.25 C 81.195312 -39.070312 85.941406 -37.082031 89.453125 -34.28125 C 92.960938 -31.488281 95.351562 -28.144531 96.625 -24.25 C 97.894531 -20.363281 98.082031 -16.148438 97.1875 -11.609375 L 96.53125 -8.3125 C 95.539062 -3.300781 94.9375 1.445312 94.71875 5.9375 C 94.5 10.4375 94.628906 14.734375 95.109375 18.828125 L 55.546875 10.984375 C 57.472656 7.378906 59.15625 3.71875 60.59375 0 C 62.039062 -3.707031 63.257812 -8.066406 64.25 -13.078125 L 64.671875 -15.15625 C 65.117188 -17.414062 64.738281 -19.644531 63.53125 -21.84375 C 62.320312 -24.039062 60.207031 -25.441406 57.1875 -26.046875 C 54.507812 -26.578125 51.90625 -26.21875 49.375 -24.96875 C 46.851562 -23.726562 45.289062 -21.59375 44.6875 -18.5625 L 44.46875 -16.90625 C 44 -14.5 43.597656 -11.753906 43.265625 -8.671875 C 42.941406 -5.597656 42.765625 -2.550781 42.734375 0.46875 C 42.710938 3.5 42.925781 6.203125 43.375 8.578125 Z M 3.8125 0.75 "/></g></g></g></g></g></svg>